<?xml version="1.0" encoding="utf-8"?>
<!DOCTYPE svg PUBLIC "-//W3C//DTD SVG 1.1//EN" "http://www.w3.org/Graphics/SVG/1.1/DTD/svg11.dtd">
<svg version="1.1" xmlns="http://www.w3.org/2000/svg" xmlns:xlink="http://www.w3.org/1999/xlink" x="0px" y="0px"
	 viewBox="0 0 96 42" style="enable-background:new 0 0 96 42;" xml:space="preserve">
<path style="fill:#dd99ff;" d="M74,1.414l5.293,5.293L79.586,7H80h8c3.86,0,7,3.14,7,7v20c0,3.86-3.14,7-7,7H8c-3.86,0-7-3.14-7-7V14
	c0-3.86,3.14-7,7-7h60h0.414l0.293-0.293L74,1.414 M74,0l-6,6H8c-4.418,0-8,3.582-8,8v20c0,4.418,3.582,8,8,8h80
	c4.418,0,8-3.582,8-8V14c0-4.418-3.582-8-8-8h-8L74,0L74,0z"/>
</svg>
